HIERARCHY
ROOT Hips
{
	OFFSET	0.00	0.00	0.00
	CHANNELS 6 Xposition Yposition Zposition Zrotation Xrotation Yrotation
	JOINT LeftUpLeg
	{
		OFFSET	 0.126116	-0.014019	-0.065224
		CHANNELS 3 Zrotation Xrotation Yrotation
		JOINT LeftLeg
		{
			OFFSET	 0.000000	 0.000000	 0.569914
			CHANNELS 3 Zrotation Xrotation Yrotation
			JOINT LeftFoot
			{
				OFFSET	 0.000000	 0.000000	 0.544423
				CHANNELS 3 Zrotation Xrotation Yrotation
				JOINT LeftToeBase
				{
					OFFSET	 0.000000	 0.000000	 0.207117
					CHANNELS 3 Zrotation Xrotation Yrotation
					End Site
					{
						OFFSET	 0.000000	 0.000000	 0.207117
					}
				}
			}
		}
	}
	JOINT RightUpLeg
	{
		OFFSET	-0.124023	-0.008373	-0.065224
		CHANNELS 3 Zrotation Xrotation Yrotation
		JOINT RightLeg
		{
			OFFSET	 0.000000	 0.000000	 0.570047
			CHANNELS 3 Zrotation Xrotation Yrotation
			JOINT RightFoot
			{
				OFFSET	 0.000000	 0.000000	 0.544354
				CHANNELS 3 Zrotation Xrotation Yrotation
				JOINT RightToeBase
				{
					OFFSET	 0.000000	 0.000000	 0.207540
					CHANNELS 3 Zrotation Xrotation Yrotation
					End Site
					{
						OFFSET	 0.000000	 0.000000	 0.207540
					}
				}
			}
		}
	}
	JOINT Spine
	{
		OFFSET	 0.000184	-0.007763	 0.117403
		CHANNELS 3 Zrotation Xrotation Yrotation
		JOINT Spine1
		{
			OFFSET	 0.000000	 0.000000	 0.137269
			CHANNELS 3 Zrotation Xrotation Yrotation
			JOINT Spine2
			{
				OFFSET	 0.000000	 0.000000	 0.156879
				CHANNELS 3 Zrotation Xrotation Yrotation
				JOINT LeftShoulder
				{
					OFFSET	 0.080501	-0.002496	 0.160144
					CHANNELS 3 Zrotation Xrotation Yrotation
					JOINT LeftArm
					{
						OFFSET	 0.000000	 0.000000	 0.164363
						CHANNELS 3 Zrotation Xrotation Yrotation
						JOINT LeftForeArm
						{
							OFFSET	 0.000000	 0.000000	 0.364576
							CHANNELS 3 Zrotation Xrotation Yrotation
							JOINT LeftHand
							{
								OFFSET	 0.000000	 0.000000	 0.360812
								CHANNELS 3 Zrotation Xrotation Yrotation
								JOINT LeftHandIndex1
								{
									OFFSET	 0.000000	 0.000000	 0.086006
									CHANNELS 3 Zrotation Xrotation Yrotation
									JOINT LeftHandIndex2
									{
										OFFSET	 0.000000	 0.000000	 0.047236
										CHANNELS 3 Zrotation Xrotation Yrotation
										JOINT LeftHandIndex3
										{
											OFFSET	-0.004284	-0.000551	 0.038166
											CHANNELS 3 Zrotation Xrotation Yrotation
											End Site
											{
												OFFSET	-0.004284	-0.000551	 0.038166
											}
										}
									}
								}
							}
						}
					}
				}
				JOINT Neck
				{
					OFFSET	 0.000000	 0.000000	 0.176489
					CHANNELS 3 Zrotation Xrotation Yrotation
					JOINT Head
					{
						OFFSET	 0.000000	-0.001747	 0.077940
						CHANNELS 3 Zrotation Xrotation Yrotation
						End Site
						{
							OFFSET	 0.000000	-0.001747	 0.077940
						}
					}
				}
				JOINT RightShoulder
				{
					OFFSET	-0.080363	 0.000306	 0.159706
					CHANNELS 3 Zrotation Xrotation Yrotation
					JOINT RightArm
					{
						OFFSET	 0.000000	 0.000000	 0.164196
						CHANNELS 3 Zrotation Xrotation Yrotation
						JOINT RightForeArm
						{
							OFFSET	 0.000000	 0.000000	 0.365611
							CHANNELS 3 Zrotation Xrotation Yrotation
							JOINT RightHand
							{
								OFFSET	 0.000000	 0.000000	 0.360648
								CHANNELS 3 Zrotation Xrotation Yrotation
								JOINT RightHandIndex1
								{
									OFFSET	 0.000000	 0.000000	 0.069977
									CHANNELS 3 Zrotation Xrotation Yrotation
									JOINT RightHandIndex2
									{
										OFFSET	 0.000000	 0.000000	 0.052305
										CHANNELS 3 Zrotation Xrotation Yrotation
										JOINT RightHandIndex3
										{
											OFFSET	 0.009002	-0.000782	 0.042196
											CHANNELS 3 Zrotation Xrotation Yrotation
											End Site
											{
												OFFSET	 0.009002	-0.000782	 0.042196
											}
										}
									}
								}
							}
						}
					}
				}
			}
		}
	}
}
MOTION
Frames:    7
Frame Time: 0.03333334
 0.000295	 0.019576	 1.273353	-0.002218	 0.005034	 0.173955	-17.485950	-2.047422	-179.387600	 1.461308	-12.878990	-0.753666	-2.568889	 71.623090	-4.004558	-2.385833	 28.452760	 0.000004	 17.333010	-2.162951	 179.187100	-1.453613	-12.459130	 0.714902	 2.512146	 71.221200	 3.867151	 2.384658	 28.388730	 0.000004	-4.179764	 2.525562	 0.269667	-2.116596	 4.348172	-0.745309	 6.403824	-5.384688	 1.435645	-91.776120	 78.527450	 179.999900	 74.232920	 46.592640	-57.489910	-8.077427	 1.926785	-4.814781	-30.855410	-18.007220	-4.594240	-2.635965	 4.993658	 6.788941	-5.165319	 0.784187	 3.516649	-5.225038	 0.466231	 0.424329	-0.000002	-3.783157	-0.089647	 6.198641	 4.234867	-0.229419	 89.782060	 78.203900	-180.000000	-65.112420	 42.126030	 56.308780	 7.038251	 5.038153	 11.851310	 31.598400	-18.976810	 9.256791	 6.112037	 4.509576	-0.364401	 4.968462	 1.518543	-9.347576	 5.168945	 0.703820	 2.021906
 0.000285	 0.019484	 1.274833	-0.001422	 0.006288	 0.169497	-17.480600	-2.033297	-179.386200	 1.461776	-12.844450	-0.751574	-2.610198	 71.360990	-3.960040	-2.385833	 28.452760	 0.000004	 17.328410	-2.155032	 179.192300	-1.453820	-12.442750	 0.713930	 2.553900	 70.968250	 3.824414	 2.384658	 28.388730	 0.000004	-3.999264	 2.392153	 0.244833	-2.032476	 4.810063	-0.681799	 6.145410	-5.996296	 1.414884	-91.776200	 78.527470	-180.000000	 74.403210	 46.720400	-57.392370	-8.064864	 1.931022	-4.825328	-31.023320	-19.252580	-4.649876	-2.635965	 4.993658	 6.788941	-5.165319	 0.784187	 3.516649	-5.225038	 0.466231	 0.424329	-0.000002	-3.783157	-0.089647	 5.924202	 3.984713	-0.206283	 89.782160	 78.203850	 179.999900	-65.235070	 41.608330	 56.894140	 6.381618	 4.761432	 11.580180	 31.931870	-20.722510	 9.069458	 6.112037	 4.509576	-0.364401	 4.968462	 1.518543	-9.347576	 5.168945	 0.703820	 2.021906
 0.000256	 0.019370	 1.276736	-0.000407	 0.007697	 0.157268	-17.461580	-2.010255	-179.379900	 1.462545	-12.786640	-0.748076	-2.643641	 71.022230	-3.910640	-2.385833	 28.452760	 0.000004	 17.333410	-2.149142	 179.203400	-1.453926	-12.434560	 0.713444	 2.619800	 70.654260	 3.767832	 2.384658	 28.388730	 0.000004	-3.653409	 2.232565	 0.213452	-1.864569	 5.363104	-0.586102	 5.633058	-6.740324	 1.337287	-91.776150	 78.527430	 180.000000	 74.615910	 46.899910	-57.350760	-8.048573	 1.876671	-4.689159	-31.296260	-21.230100	-4.750088	-2.635965	 4.993658	 6.788941	-5.165319	 0.784187	 3.516649	-5.225038	 0.466231	 0.424329	-0.000002	-3.783157	-0.089647	 5.402814	 3.703442	-0.174814	 89.782070	 78.203890	-180.000000	-65.099500	 40.813110	 58.010350	 5.306023	 4.209248	 10.837790	 32.456520	-23.419920	 8.835471	 6.112037	 4.509576	-0.364401	 4.968462	 1.518543	-9.347576	 5.168945	 0.703820	 2.021906
 0.000198	 0.019237	 1.279058	 0.000646	 0.008869	 0.132400	-17.454020	-1.976694	-179.362800	 1.463706	-12.700220	-0.742849	-2.701557	 70.605810	-3.848893	-2.385833	 28.452760	 0.000004	 17.324480	-2.150693	 179.225500	-1.453731	-12.449560	 0.714335	 2.678506	 70.288960	 3.705408	 2.384658	 28.388730	 0.000004	-3.072112	 2.061429	 0.179328	-1.573362	 5.958126	-0.454664	 4.750648	-7.555349	 1.163175	-91.776050	 78.527470	 179.999900	 74.842960	 47.129730	-57.412320	-8.029366	 1.717143	-4.289463	-31.721540	-24.185260	-4.929052	-2.635965	 4.993658	 6.788941	-5.165319	 0.784187	 3.516649	-5.225038	 0.466231	 0.424329	-0.000002	-3.783157	-0.089647	 4.531659	 3.423035	-0.135492	 89.782090	 78.203890	 180.000000	-63.951020	 39.390270	 59.034880	 3.268661	 3.798158	 10.926210	 32.410140	-27.456210	 8.222307	 6.112037	 4.509576	-0.364401	 4.968462	 1.518543	-9.347576	 5.168945	 0.703820	 2.021906
 0.000117	 0.019118	 1.281354	 0.001101	 0.009327	 0.099015	-17.445400	-1.939919	-179.338300	 1.464974	-12.603960	-0.737033	-2.755492	 70.190690	-3.790693	-2.385833	 28.452760	 0.000004	 17.315970	-2.163069	 179.254000	-1.453172	-12.493230	 0.716922	 2.736336	 69.944270	 3.643440	 2.384658	 28.388730	 0.000004	-2.342585	 1.924515	 0.151083	-1.198609	 6.437790	-0.315897	 3.623434	-8.223228	 0.906759	-91.776210	 78.527500	-180.000000	 75.000970	 47.353080	-57.583560	-8.124006	 1.441812	-3.600467	-32.129990	-27.606550	-5.165838	-2.635965	 4.993658	 6.788941	-5.165319	 0.784187	 3.516649	-5.225038	 0.466231	 0.424329	-0.000002	-3.783157	-0.089647	 3.443503	 3.213915	-0.096646	 89.782160	 78.203900	 179.999900	-60.860290	 37.185700	 58.850250	 0.136909	 3.997857	 13.834320	 31.222930	-32.190100	 6.969104	 6.112037	 4.509576	-0.364401	 4.968462	 1.518543	-9.347576	 5.168945	 0.703820	 2.021906
-0.000018	 0.019024	 1.283632	 0.001959	 0.014021	 0.071778	-17.438090	-1.886308	-179.325900	 1.466739	-12.469170	-0.728895	-2.806959	 69.771190	-3.734337	-2.385833	 28.452760	 0.000004	 17.307110	-2.179984	 179.279600	-1.452641	-12.534560	 0.719372	 2.793433	 69.613650	 3.581574	 2.384658	 28.388730	 0.000004	-1.524278	 1.826215	 0.118009	-0.771089	 6.769821	-0.179376	 2.343163	-8.691642	 0.591137	-91.776120	 78.527490	 179.999900	 75.151860	 47.585000	-58.249740	-8.155555	 0.794990	-1.983972	-32.694320	-31.202340	-5.496233	-2.635965	 4.993658	 6.788941	-5.165319	 0.784187	 3.516649	-5.225038	 0.466231	 0.424329	-0.000002	-3.783157	-0.089647	 2.226466	 3.077638	-0.059833	 89.782160	 78.203900	 179.999900	-56.612750	 34.669160	 61.551200	-2.957892	 2.934764	 12.786820	 29.330130	-36.826240	 5.478949	 6.112037	 4.509576	-0.364401	 4.968462	 1.518543	-9.347576	 5.168945	 0.703820	 2.021906
-0.000145	 0.018929	 1.285649	 0.001574	 0.016479	 0.037397	-17.428860	-1.840337	-179.304400	 1.468284	-12.350480	-0.721737	-2.855489	 69.362910	-3.680748	-2.385833	 28.452760	 0.000004	 17.299240	-2.205986	 179.309600	-1.451756	-12.603050	 0.723429	 2.849633	 69.299580	 3.520267	 2.384658	 28.388730	 0.000004	-0.633769	 1.724931	 0.112077	-0.298131	 7.043559	-0.080501	 0.943571	-8.993699	 0.248009	-91.776180	 78.527450	 180.000000	 75.100900	 47.745400	-58.708740	-8.168638	 0.190638	-0.475639	-33.328450	-34.750220	-5.910704	-2.635965	 4.993658	 6.788941	-5.165319	 0.784187	 3.516649	-5.225038	 0.466231	 0.424329	-0.000002	-3.783157	-0.089647	 0.906040	 3.005130	-0.023780	 89.782050	 78.203890	-180.000000	-50.599430	 31.188530	 63.551040	-6.351158	 2.322004	 13.868100	 26.400500	-41.056340	 3.617087	 6.112037	 4.509576	-0.364401	 4.968462	 1.518543	-9.347576	 5.168945	 0.703820	 2.021906
